<svg xmlns="http://www.w3.org/2000/svg" viewBox="0 0 585 98" width="585" height="98">
<g transform="translate(0 5.0)"><rect width="88" height="88" rx="12.3" fill="#B8402E"></rect>
<rect x="7.5" y="7.5" width="73.0" height="73.0" rx="6.8" fill="none" stroke="#FBF7F0" stroke-width="2.6"></rect>
<path transform="translate(16.72 64.68)" d="M19.613254375 -24.524173867187503H41.065111484375L44.08120320312501 -28.226088515625Q44.08120320312501 -28.226088515625 44.629533867187504 -27.80133705078125Q45.17786453125 -27.3765855859375 46.055193593750005 -26.719134921875003Q46.93252265625 -26.0616842578125 47.87832478515625 -25.2945674609375Q48.824126914062504 -24.527450664062503 49.619069843750005 -23.8159861328125Q49.40082984375 -22.96976 48.117031445312506 -22.96976H19.613254375ZM32.106921601562505 -24.524173867187503H37.095391953125V-4.7832842578125Q37.095391953125 -4.591778125 35.9938154296875 -4.0150751953125Q34.89223890625 -3.4383722656250004 32.962978125 -3.4383722656250004H32.106921601562505ZM17.8187551953125 -34.8491210546875 24.065382343750002 -32.7027125390625Q23.9829962109375 -32.4288202734375 23.6272639453125 -32.278507207031254Q23.271531679687502 -32.128194140625006 22.778307148437502 -32.019074140625V-24.065329062500002Q22.778307148437502 -21.7192490625 22.504414882812505 -18.990156796875Q22.230522617187503 -16.26106453125 21.2991796875 -13.4495861328125Q20.3678367578125 -10.638107734375001 18.46395783203125 -8.032594667968752Q16.560078906250002 -5.4270816015625005 13.327931718750001 -3.3014261328125003L12.731048515625002 -3.981787734375Q15.0449333203125 -7.0115061328125 16.119489589843752 -10.423690664062502Q17.194045859375002 -13.835875195312502 17.50640052734375 -17.35663359375Q17.8187551953125 -20.8773919921875 17.8187551953125 -24.17663359375ZM39.753486953125005 -38.049073046875 45.11950824218751 -33.321960546875005Q44.68193597656251 -32.93894828125 43.901452246093754 -32.910576015625Q43.120968515625 -32.88220375 42.023214921875 -33.2919498828125Q39.2728501171875 -32.717431484375005 35.66179998046876 -32.240304550781254Q32.050749843750005 -31.7631776171875 28.125706640625005 -31.464736015625Q24.2006634375 -31.166294414062502 20.493860234375003 -31.113918945312502L20.304538632812502 -31.927949882812502Q23.706346640625004 -32.614865078125 27.378770117187504 -33.658058671875Q31.051193593750003 -34.701252265625 34.32887626953125 -35.8541119921875Q37.6065589453125 -37.00697171875 39.753486953125005 -38.049073046875ZM5.4150666796875 -41.473245859375005V-44.004851171875L11.446730625 -41.473245859375005H10.736358359375V3.1121045312500004Q10.736358359375 3.2768767968750003 10.19921009765625 3.6476143945312502Q9.6620618359375 4.0183519921875 8.6974314453125 4.334529589843751Q7.732801054687501 4.6507071875 6.354601601562501 4.6507071875H5.4150666796875ZM8.9505973046875 -41.473245859375005H41.8982304296875L45.081278945312505 -45.50798183593751Q45.081278945312505 -45.50798183593751 45.68471574218751 -45.055404238281255Q46.2881525390625 -44.602826640625004 47.193307734375004 -43.87635677734376Q48.09846292968751 -43.149886914062506 49.11328425781251 -42.34103091796875Q50.128105585937504 -41.532174921875004 50.950874648437505 -40.765058125Q50.732634648437504 -39.892098125000004 49.4755701171875 -39.892098125000004H8.9505973046875ZM8.5053791796875 -0.8664064062500001H43.11982296875L46.493285351562506 -5.09155625Q46.493285351562506 -5.09155625 47.124002148437505 -4.61169865234375Q47.754718945312504 -4.1318410546875 48.70106720703126 -3.3780911914062504Q49.647415468750005 -2.6243413281250003 50.716796796875 -1.7748383984375002Q51.786178125000006 -0.9253354687500001 52.6635071875 -0.15821867187500002Q52.4452671875 0.714741328125 51.1614687890625 0.714741328125H8.5053791796875Z" fill="#FBF7F0"></path>
</g>
<g transform="translate(112 0.0)"><path d="M32.29599084458687 76.00799816891737Q25.359996337834747 76.00799816891737 19.660000915541314 73.09199908445868Q13.960005493247882 70.176 10.67200732433051 64.368Q7.384009155413138 58.559999999999995 7.384009155413138 49.919999999999995V48.0Q7.384009155413138 39.74399999999999 10.828008239871824 34.175999999999995Q14.27200732433051 28.607999999999997 19.936003662165255 25.74000091554131Q25.6 22.87200183108262 32.29599084458687 22.87200183108262Q39.51997802700847 22.87200183108262 44.535972533760585 25.28399908445868Q49.55196704051271 27.695996337834742 52.25196795605402 31.90799176012817Q54.95196887159533 36.119987182421596 55.383972533760584 41.231981689173715H42.472012817578396Q41.75200183108263 37.75197985809109 39.38799725337606 35.687976195925835Q37.02399267566949 33.62397253376058 32.29599084458687 33.62397253376058Q29.079987182421604 33.62397253376058 26.331982604715037 35.14797528038452Q23.58397802700847 36.671978027008464 21.8919734493019 39.86398352025635Q20.19996887159533 43.05598901350423 20.19996887159533 48.0V49.919999999999995Q20.19996887159533 55.32000915541313 21.7959734493019 58.71601556420233Q23.39197802700847 62.11202197299153 26.139982604715037 63.684024719615465Q28.887987182421604 65.2560274662394 32.29599084458687 65.2560274662394Q36.08799450675212 65.2560274662394 38.788002746623945 63.31202197299152Q41.488010986495766 61.368016479743645 42.472012817578396 57.648018310826274H55.383972533760584Q54.759968871595326 63.12001098649576 51.699969787136645 67.3440073243305Q48.639970702677964 71.56800366216525 43.62397619592585 73.78800091554132Q38.60798168917373 76.00799816891737 32.29599084458687 76.00799816891737ZM63.184018310826275 74.88V23.999999999999993H74.79998168917372V31.53601831082627Q75.78398352025636 29.328010986495755 77.64398626688029 27.4080073243305Q79.50398901350422 25.488003662165248 82.19199267566948 24.180002746623934Q84.87999633783474 22.87200183108262 88.096 22.87200183108262Q89.89599084458686 22.87200183108262 91.19199084458685 23.06400183108262Q92.48799084458686 23.25600183108262 92.896 23.376003662165246V34.655970702677955Q91.9360073243305 34.271970702677955 90.43601007095444 33.94797161821927Q88.93601281757839 33.62397253376058 86.48800915541314 33.62397253376058Q82.62401464866102 33.62397253376058 80.2720073243305 35.24397161821926Q77.92 36.86397070267795 76.86398901350424 39.52797619592583Q75.80797802700846 42.191981689173716 75.80797802700846 45.215999999999994V74.88ZM115.02401098649577 76.00799816891737Q109.62400915541315 76.00799816891737 105.78400915541314 73.94399816891737Q101.94400915541314 71.87999816891737 99.92800915541315 68.24399908445868Q97.91200915541314 64.60799999999999 97.91200915541314 59.99999999999999Q97.91200915541314 52.31999999999999 102.46000823987183 48.46800640878919Q107.00800732433052 44.616012817578394 116.128 44.616012817578394H131.2720128175784V42.239999999999995Q131.2720128175784 37.24798535133897 129.0160054932479 35.243978942549774Q126.75999816891738 33.23997253376058 121.86399084458687 33.23997253376058Q117.5919798580911 33.23997253376058 115.67197619592585 34.71598260471504Q113.7519725337606 36.19199267566949 113.48797436484321 38.37599084458686H100.79200915541314Q101.08000915541314 34.03199633783474 103.62400915541315 30.51599908445868Q106.16800915541315 27.00000183108262 110.90800457770658 24.93600183108262Q115.648 22.87200183108262 122.34399084458687 22.87200183108262Q128.9199871824216 22.87200183108262 133.75598260471503 24.780000915541308Q138.59197802700848 26.687999999999995 141.29197528038452 30.983998168917367Q143.9919725337606 35.27999633783474 143.9919725337606 42.431992675669484V61.919999999999995Q143.9919725337606 65.952 144.1239716182193 68.976Q144.25597070267796 72.0 144.63997070267794 74.88H132.8080128175784Q132.4240128175784 72.768 132.3880137331197 71.65199176012817Q132.35201464866103 70.53598352025635 132.35201464866103 68.37597985809109Q130.28801098649575 71.47198901350423 126.00401007095445 73.7399935912108Q121.72000915541314 76.00799816891737 115.02401098649577 76.00799816891737ZM118.98399084458687 66.21602746623941Q122.05599816891737 66.21602746623941 124.91200366216526 65.11202380407416Q127.76800915541314 64.0080201419089 129.52001098649578 61.680014648661015Q131.2720128175784 59.352009155413135 131.2720128175784 55.67999999999999V53.3039871824216H118.50399084458687Q114.87997802700846 53.3039871824216 112.8039734493019 54.97198992904554Q110.72796887159534 56.63999267566948 110.72796887159534 59.49600549324788Q110.72796887159534 62.56801281757839 112.86397436484322 64.3920201419089Q114.9999798580911 66.21602746623941 118.98399084458687 66.21602746623941ZM157.16801831082626 74.88V34.55997070267795H150.90400915541312V23.999999999999993H157.16801831082626V22.10400915541313Q157.16801831082626 17.1523757551885 158.93201739528496 13.856187877594245Q160.69601647974363 10.559999999999988 164.64401007095444 8.831999999999994Q168.59200366216524 7.103999999999999 175.33599084458686 7.103999999999999Q176.77599084458686 7.103999999999999 178.93599084458685 7.151999999999994Q181.09599084458685 7.199999999999989 182.53599084458685 7.439999999999998V18.143970702677947Q181.09599084458685 17.951970702677947 179.41599084458687 17.90397070267795Q177.73599084458687 17.85597070267795 176.29599084458687 17.85597070267795Q172.64739828838435 17.85597070267795 171.2196881576964 19.079976195925838Q169.79197802700847 20.303981689173725 169.79197802700847 23.039999999999992V23.999999999999993H181.57599084458684V34.55997070267795H169.79197802700847V74.88ZM209.15200000000002 75.45599999999999Q203.2340222072836 75.45599999999999 199.3770184279723 73.77599999999998Q195.52001464866103 72.09599999999999 193.72001647974366 68.35200366216525Q191.9200183108263 64.6080073243305 191.9200183108263 58.60801831082627V34.55997070267795H185.17600915541314V23.999999999999993H191.9200183108263V12.479999999999997H204.54397802700848V23.999999999999993H216.80799084458687V34.55997070267795H204.54397802700848V56.61602746623941Q204.54397802700848 60.984023804074155 206.11989371759532 62.844026550698096Q207.69580940818216 64.70402929732204 212.00799084458689 64.70402929732204Q214.88799084458688 64.70402929732204 217.76799084458688 64.41602929732204V74.94607868304732Q215.94399084458686 75.16799999999999 213.9999926756695 75.31199999999998Q212.05599450675214 75.45599999999999 209.15200000000002 75.45599999999999Z" fill="#1C1A17"></path>
<path d="M225.9696 74.88V62.64959999999999L251.55936000000003 35.3664H226.9104V23.135999999999996H268.21152V35.3664L242.62176000000002 62.64959999999999H269.2464V74.88Z" fill="#B8402E"></path>
<path d="M279.6400183108263 74.88V23.999999999999993H291.2559816891737V31.53601831082627Q292.95997985809106 28.17600366216525 296.835982604715 25.524002746623935Q300.71198535133897 22.87200183108262 305.8239871824216 22.87200183108262Q311.9439926756695 22.87200183108262 315.4479926756695 25.35600457770656Q318.9519926756695 27.8400073243305 320.3919926756695 31.99200915541313Q322.47999816891735 27.96000183108262 326.4879963378347 25.41600183108262Q330.49599450675214 22.87200183108262 335.91999816891735 22.87200183108262Q344.05599633783476 22.87200183108262 348.30399816891736 27.540002746623934Q352.552 32.20800366216525 352.552 41.78400915541313V74.88H339.83204028381783V44.63999999999999Q339.83204028381783 38.59198535133897 337.8880384527352 36.10797894254978Q335.9440366216526 33.62397253376058 331.64801647974366 33.62397253376058Q329.15202380407413 33.62397253376058 327.0280155642023 34.89597436484321Q324.9040073243305 36.16797619592584 323.63199816891733 38.68798168917372Q322.3599890135042 41.2079871824216 322.3599890135042 44.63999999999999V74.88H309.73602929732203V44.63999999999999Q309.73602929732203 38.59198535133897 307.7800265506981 36.10797894254978Q305.82402380407416 33.62397253376058 301.45600549324786 33.62397253376058Q298.9600128175784 33.62397253376058 296.8360045777066 34.89597436484321Q294.71199633783476 36.16797619592584 293.48798718242165 38.68798168917372Q292.2639780270085 41.2079871824216 292.2639780270085 44.63999999999999V74.88ZM378.04001098649576 76.00799816891737Q372.6400091554131 76.00799816891737 368.80000915541314 73.94399816891737Q364.9600091554131 71.87999816891737 362.94400915541314 68.24399908445868Q360.9280091554131 64.60799999999999 360.9280091554131 59.99999999999999Q360.9280091554131 52.31999999999999 365.4760082398718 48.46800640878919Q370.02400732433046 44.616012817578394 379.14399999999995 44.616012817578394H394.28801281757836V42.239999999999995Q394.28801281757836 37.24798535133897 392.0320054932479 35.243978942549774Q389.77599816891734 33.23997253376058 384.8799908445868 33.23997253376058Q380.6079798580911 33.23997253376058 378.6879761959258 34.71598260471504Q376.76797253376054 36.19199267566949 376.5039743648432 38.37599084458686H363.8080091554131Q364.0960091554131 34.03199633783474 366.6400091554131 30.51599908445868Q369.1840091554131 27.00000183108262 373.92400457770657 24.93600183108262Q378.664 22.87200183108262 385.35999084458683 22.87200183108262Q391.93598718242157 22.87200183108262 396.771982604715 24.780000915541308Q401.6079780270084 26.687999999999995 404.3079752803845 30.983998168917367Q407.00797253376055 35.27999633783474 407.00797253376055 42.431992675669484V61.919999999999995Q407.00797253376055 65.952 407.1399716182192 68.976Q407.2719707026779 72.0 407.6559707026779 74.88H395.82401281757836Q395.44001281757835 72.768 395.40401373311965 71.65199176012817Q395.36801464866096 70.53598352025635 395.36801464866096 68.37597985809109Q393.3040109864957 71.47198901350423 389.0200100709544 73.7399935912108Q384.7360091554131 76.00799816891737 378.04001098649576 76.00799816891737ZM381.9999908445868 66.21602746623941Q385.07199816891733 66.21602746623941 387.9280036621652 65.11202380407416Q390.7840091554131 64.0080201419089 392.53601098649574 61.680014648661015Q394.28801281757836 59.352009155413135 394.28801281757836 55.67999999999999V53.3039871824216H381.5199908445868Q377.8959780270084 53.3039871824216 375.81997344930187 54.97198992904554Q373.7439688715953 56.63999267566948 373.7439688715953 59.49600549324788Q373.7439688715953 62.56801281757839 375.8799743648432 64.3920201419089Q378.01597985809104 66.21602746623941 381.9999908445868 66.21602746623941ZM417.3040183108263 74.88V23.999999999999993H428.9199816891737V31.464020141908897Q430.81597985809105 28.00801281757839 434.8591010226821 25.440007324330505Q438.90222218727314 22.87200183108262 445.91199633783475 22.87200183108262Q455.2000018310826 22.87200183108262 459.7480009155413 27.838632268471585Q464.296 32.80526270586055 464.296 42.26400915541313V74.88H451.5760402838178V45.11999999999999Q451.5760402838178 39.41278644998855 449.24803479056993 36.51837949187457Q446.920029297322 33.62397253376058 441.21473325703823 33.62397253376058Q437.2480018310826 33.62397253376058 434.73442672248007 35.230262564169635Q432.2208516138775 36.836552594578684 431.074414820443 39.4542735506654Q429.92797802700846 42.07199450675211 429.92797802700846 45.11999999999999V74.88Z" fill="#1C1A17"></path>
</g>
</svg>